# xmcd
#
# Track frame offsets:
#   150
#   57987
#   84941
#   117406
#   152583
#   181492
#   204947
#   241286
#   272758
#
# Disc length: 3985 seconds
#
# Revision: 0
# Processed by: cddbd v1.4PL0 Copyright (c) Steve Scherf et al.
# Submitted via: uFREEDB 1.6.0
#
DISCID=710f8f09
DTITLE=Eric Clapton - Blues [CD2 - Live Disc
DYEAR=1900
DGENRE=Blues
TTITLE0=Stormy Monday
TTITLE1=Worried Life Blues
TTITLE2=Early in the Morning
TTITLE3=Have You Ever Loved a Woman
TTITLE4=Wonderful Tonight 
TTITLE5=Kind Hearted Woman
TTITLE6=Double Trouble
TTITLE7=Driftin' Blues
TTITLE8=Crossroads - Further On Up The Road
EXTD=
EXTT0=
EXTT1=
EXTT2=
EXTT3=
EXTT4=
EXTT5=
EXTT6=
EXTT7=
EXTT8=
PLAYORDER=
